ply
format ascii 1.0
element vertex 600
property float x
property float y
property float z
end_header
-575.000 -54.000 0.000
-572.000 -54.000 0.000
-569.000 -54.000 0.000
-566.000 -54.000 0.000
-563.000 -54.000 0.000
-560.000 -54.000 0.000
-557.000 -54.000 0.000
-554.000 -54.000 0.000
-551.000 -54.000 0.000
-583.000 -53.000 0.000
-580.000 -53.000 0.000
-548.000 -53.000 0.000
-545.000 -53.000 0.000
-542.000 -53.000 0.000
-539.000 -53.000 0.000
-589.000 -52.000 0.000
-586.000 -52.000 0.000
-536.000 -52.000 0.000
-533.000 -52.000 0.000
-530.000 -52.000 0.000
-593.000 -51.000 0.000
-577.000 -51.000 0.000
-574.000 -51.000 0.000
-571.000 -51.000 0.000
-568.000 -51.000 0.000
-565.000 -51.000 0.000
-562.000 -51.000 0.000
-559.000 -51.000 0.000
-556.000 -51.000 0.000
-553.000 -51.000 0.000
-527.000 -51.000 0.000
-524.000 -51.000 0.000
-596.000 -50.000 0.000
-583.000 -50.000 0.000
-580.000 -50.000 0.000
-550.000 -50.000 0.000
-547.000 -50.000 0.000
-544.000 -50.000 0.000
-541.000 -50.000 0.000
-521.000 -50.000 0.000
-518.000 -50.000 0.000
-380.000 -50.000 0.000
-377.000 -50.000 0.000
-374.000 -50.000 0.000
-371.000 -50.000 0.000
-368.000 -50.000 0.000
-365.000 -50.000 0.000
-362.000 -50.000 0.000
-359.000 -50.000 0.000
-356.000 -50.000 0.000
-353.000 -50.000 0.000
-350.000 -50.000 0.000
-347.000 -50.000 0.000
-344.000 -50.000 0.000
-341.000 -50.000 0.000
-338.000 -50.000 0.000
-335.000 -50.000 0.000
-332.000 -50.000 0.000
-329.000 -50.000 0.000
-326.000 -50.000 0.000
-323.000 -50.000 0.000
-320.000 -50.000 0.000
-215.000 -50.000 0.000
-212.000 -50.000 0.000
-209.000 -50.000 0.000
-206.000 -50.000 0.000
-203.000 -50.000 0.000
-200.000 -50.000 0.000
-197.000 -50.000 0.000
-194.000 -50.000 0.000
-191.000 -50.000 0.000
-188.000 -50.000 0.000
-185.000 -50.000 0.000
-182.000 -50.000 0.000
-179.000 -50.000 0.000
-176.000 -50.000 0.000
-173.000 -50.000 0.000
-170.000 -50.000 0.000
-167.000 -50.000 0.000
-164.000 -50.000 0.000
-161.000 -50.000 0.000
-158.000 -50.000 0.000
-155.000 -50.000 0.000
-152.000 -50.000 0.000
-149.000 -50.000 0.000
-146.000 -50.000 0.000
-143.000 -50.000 0.000
-140.000 -50.000 0.000
-137.000 -50.000 0.000
-134.000 -50.000 0.000
-131.000 -50.000 0.000
-128.000 -50.000 0.000
-125.000 -50.000 0.000
-122.000 -50.000 0.000
-119.000 -50.000 0.000
-116.000 -50.000 0.000
-113.000 -50.000 0.000
-110.000 -50.000 0.000
-107.000 -50.000 0.000
-104.000 -50.000 0.000
-101.000 -50.000 0.000
-98.000 -50.000 0.000
-95.000 -50.000 0.000
-92.000 -50.000 0.000
-89.000 -50.000 0.000
-86.000 -50.000 0.000
-83.000 -50.000 0.000
-80.000 -50.000 0.000
-77.000 -50.000 0.000
-74.000 -50.000 0.000
74.000 -50.000 0.000
77.000 -50.000 0.000
80.000 -50.000 0.000
83.000 -50.000 0.000
86.000 -50.000 0.000
89.000 -50.000 0.000
92.000 -50.000 0.000
95.000 -50.000 0.000
98.000 -50.000 0.000
101.000 -50.000 0.000
104.000 -50.000 0.000
107.000 -50.000 0.000
110.000 -50.000 0.000
113.000 -50.000 0.000
116.000 -50.000 0.000
119.000 -50.000 0.000
122.000 -50.000 0.000
125.000 -50.000 0.000
197.000 -50.000 0.000
200.000 -50.000 0.000
203.000 -50.000 0.000
206.000 -50.000 0.000
209.000 -50.000 0.000
212.000 -50.000 0.000
215.000 -50.000 0.000
218.000 -50.000 0.000
221.000 -50.000 0.000
224.000 -50.000 0.000
227.000 -50.000 0.000
230.000 -50.000 0.000
233.000 -50.000 0.000
236.000 -50.000 0.000
239.000 -50.000 0.000
242.000 -50.000 0.000
245.000 -50.000 0.000
248.000 -50.000 0.000
301.000 -50.000 0.000
304.000 -50.000 0.000
307.000 -50.000 0.000
310.000 -50.000 0.000
313.000 -50.000 0.000
316.000 -50.000 0.000
319.000 -50.000 0.000
322.000 -50.000 0.000
325.000 -50.000 0.000
328.000 -50.000 0.000
331.000 -50.000 0.000
334.000 -50.000 0.000
337.000 -50.000 0.000
340.000 -50.000 0.000
343.000 -50.000 0.000
346.000 -50.000 0.000
349.000 -50.000 0.000
352.000 -50.000 0.000
355.000 -50.000 0.000
358.000 -50.000 0.000
361.000 -50.000 0.000
364.000 -50.000 0.000
367.000 -50.000 0.000
370.000 -50.000 0.000
373.000 -50.000 0.000
376.000 -50.000 0.000
379.000 -50.000 0.000
382.000 -50.000 0.000
385.000 -50.000 0.000
388.000 -50.000 0.000
391.000 -50.000 0.000
394.000 -50.000 0.000
397.000 -50.000 0.000
400.000 -50.000 0.000
403.000 -50.000 0.000
406.000 -50.000 0.000
409.000 -50.000 0.000
412.000 -50.000 0.000
415.000 -50.000 0.000
418.000 -50.000 0.000
421.000 -50.000 0.000
424.000 -50.000 0.000
427.000 -50.000 0.000
430.000 -50.000 0.000
433.000 -50.000 0.000
436.000 -50.000 0.000
439.000 -50.000 0.000
442.000 -50.000 0.000
468.000 -50.000 0.000
471.000 -50.000 0.000
474.000 -50.000 0.000
477.000 -50.000 0.000
480.000 -50.000 0.000
483.000 -50.000 0.000
486.000 -50.000 0.000
489.000 -50.000 0.000
492.000 -50.000 0.000
495.000 -50.000 0.000
498.000 -50.000 0.000
501.000 -50.000 0.000
504.000 -50.000 0.000
507.000 -50.000 0.000
510.000 -50.000 0.000
513.000 -50.000 0.000
516.000 -50.000 0.000
519.000 -50.000 0.000
522.000 -50.000 0.000
525.000 -50.000 0.000
528.000 -50.000 0.000
531.000 -50.000 0.000
534.000 -50.000 0.000
537.000 -50.000 0.000
540.000 -50.000 0.000
543.000 -50.000 0.000
546.000 -50.000 0.000
549.000 -50.000 0.000
552.000 -50.000 0.000
555.000 -50.000 0.000
558.000 -50.000 0.000
561.000 -50.000 0.000
564.000 -50.000 0.000
567.000 -50.000 0.000
570.000 -50.000 0.000
573.000 -50.000 0.000
576.000 -50.000 0.000
579.000 -50.000 0.000
582.000 -50.000 0.000
585.000 -50.000 0.000
588.000 -50.000 0.000
591.000 -50.000 0.000
594.000 -50.000 0.000
597.000 -50.000 0.000
600.000 -50.000 0.000
603.000 -50.000 0.000
606.000 -50.000 0.000
609.000 -50.000 0.000
612.000 -50.000 0.000
615.000 -50.000 0.000
618.000 -50.000 0.000
621.000 -50.000 0.000
624.000 -50.000 0.000
627.000 -50.000 0.000
630.000 -50.000 0.000
633.000 -50.000 0.000
636.000 -50.000 0.000
639.000 -50.000 0.000
642.000 -50.000 0.000
645.000 -50.000 0.000
648.000 -50.000 0.000
651.000 -50.000 0.000
654.000 -50.000 0.000
-600.000 -49.000 0.000
-590.000 -49.000 0.000
-587.000 -49.000 0.000
-538.000 -49.000 0.000
-535.000 -49.000 0.000
-532.000 -49.000 0.000
-515.000 -49.000 0.000
-512.000 -49.000 0.000
-593.000 -48.000 0.000
-577.000 -48.000 0.000
-574.000 -48.000 0.000
-571.000 -48.000 0.000
-568.000 -48.000 0.000
-565.000 -48.000 0.000
-562.000 -48.000 0.000
-559.000 -48.000 0.000
-556.000 -48.000 0.000
-553.000 -48.000 0.000
-529.000 -48.000 0.000
-526.000 -48.000 0.000
-509.000 -48.000 0.000
-317.000 -48.000 0.000
-605.000 -47.000 0.000
-597.000 -47.000 0.000
-584.000 -47.000 0.000
-581.000 -47.000 0.000
-550.000 -47.000 0.000
-547.000 -47.000 0.000
-544.000 -47.000 0.000
-541.000 -47.000 0.000
-523.000 -47.000 0.000
-520.000 -47.000 0.000
-506.000 -47.000 0.000
-503.000 -47.000 0.000
-381.000 -47.000 0.000
-378.000 -47.000 0.000
-375.000 -47.000 0.000
-372.000 -47.000 0.000
-369.000 -47.000 0.000
-366.000 -47.000 0.000
-363.000 -47.000 0.000
-360.000 -47.000 0.000
-357.000 -47.000 0.000
-354.000 -47.000 0.000
-351.000 -47.000 0.000
-348.000 -47.000 0.000
-345.000 -47.000 0.000
-342.000 -47.000 0.000
-339.000 -47.000 0.000
-336.000 -47.000 0.000
-333.000 -47.000 0.000
-330.000 -47.000 0.000
-327.000 -47.000 0.000
-324.000 -47.000 0.000
-321.000 -47.000 0.000
-215.000 -47.000 0.000
-212.000 -47.000 0.000
-209.000 -47.000 0.000
-206.000 -47.000 0.000
-203.000 -47.000 0.000
-200.000 -47.000 0.000
-197.000 -47.000 0.000
-194.000 -47.000 0.000
-191.000 -47.000 0.000
-188.000 -47.000 0.000
-185.000 -47.000 0.000
-182.000 -47.000 0.000
-179.000 -47.000 0.000
-176.000 -47.000 0.000
-173.000 -47.000 0.000
-170.000 -47.000 0.000
-167.000 -47.000 0.000
-164.000 -47.000 0.000
-161.000 -47.000 0.000
-158.000 -47.000 0.000
-155.000 -47.000 0.000
-152.000 -47.000 0.000
-149.000 -47.000 0.000
-146.000 -47.000 0.000
-143.000 -47.000 0.000
-140.000 -47.000 0.000
-137.000 -47.000 0.000
-134.000 -47.000 0.000
-131.000 -47.000 0.000
-128.000 -47.000 0.000
-125.000 -47.000 0.000
-122.000 -47.000 0.000
-119.000 -47.000 0.000
-116.000 -47.000 0.000
-113.000 -47.000 0.000
-110.000 -47.000 0.000
-107.000 -47.000 0.000
-104.000 -47.000 0.000
-101.000 -47.000 0.000
-98.000 -47.000 0.000
-95.000 -47.000 0.000
-92.000 -47.000 0.000
-89.000 -47.000 0.000
-86.000 -47.000 0.000
-83.000 -47.000 0.000
-80.000 -47.000 0.000
-77.000 -47.000 0.000
-74.000 -47.000 0.000
74.000 -47.000 0.000
77.000 -47.000 0.000
80.000 -47.000 0.000
83.000 -47.000 0.000
86.000 -47.000 0.000
89.000 -47.000 0.000
92.000 -47.000 0.000
95.000 -47.000 0.000
98.000 -47.000 0.000
101.000 -47.000 0.000
104.000 -47.000 0.000
107.000 -47.000 0.000
110.000 -47.000 0.000
113.000 -47.000 0.000
116.000 -47.000 0.000
119.000 -47.000 0.000
122.000 -47.000 0.000
125.000 -47.000 0.000
197.000 -47.000 0.000
200.000 -47.000 0.000
203.000 -47.000 0.000
206.000 -47.000 0.000
209.000 -47.000 0.000
212.000 -47.000 0.000
215.000 -47.000 0.000
218.000 -47.000 0.000
221.000 -47.000 0.000
224.000 -47.000 0.000
227.000 -47.000 0.000
230.000 -47.000 0.000
233.000 -47.000 0.000
236.000 -47.000 0.000
239.000 -47.000 0.000
242.000 -47.000 0.000
245.000 -47.000 0.000
248.000 -47.000 0.000
301.000 -47.000 0.000
304.000 -47.000 0.000
307.000 -47.000 0.000
310.000 -47.000 0.000
313.000 -47.000 0.000
316.000 -47.000 0.000
319.000 -47.000 0.000
322.000 -47.000 0.000
325.000 -47.000 0.000
328.000 -47.000 0.000
331.000 -47.000 0.000
334.000 -47.000 0.000
337.000 -47.000 0.000
340.000 -47.000 0.000
343.000 -47.000 0.000
346.000 -47.000 0.000
349.000 -47.000 0.000
352.000 -47.000 0.000
355.000 -47.000 0.000
358.000 -47.000 0.000
361.000 -47.000 0.000
364.000 -47.000 0.000
367.000 -47.000 0.000
370.000 -47.000 0.000
373.000 -47.000 0.000
376.000 -47.000 0.000
379.000 -47.000 0.000
382.000 -47.000 0.000
385.000 -47.000 0.000
388.000 -47.000 0.000
391.000 -47.000 0.000
394.000 -47.000 0.000
397.000 -47.000 0.000
400.000 -47.000 0.000
403.000 -47.000 0.000
406.000 -47.000 0.000
409.000 -47.000 0.000
412.000 -47.000 0.000
415.000 -47.000 0.000
418.000 -47.000 0.000
421.000 -47.000 0.000
424.000 -47.000 0.000
427.000 -47.000 0.000
430.000 -47.000 0.000
433.000 -47.000 0.000
436.000 -47.000 0.000
439.000 -47.000 0.000
442.000 -47.000 0.000
468.000 -47.000 0.000
471.000 -47.000 0.000
474.000 -47.000 0.000
477.000 -47.000 0.000
480.000 -47.000 0.000
483.000 -47.000 0.000
486.000 -47.000 0.000
489.000 -47.000 0.000
492.000 -47.000 0.000
495.000 -47.000 0.000
498.000 -47.000 0.000
501.000 -47.000 0.000
504.000 -47.000 0.000
507.000 -47.000 0.000
510.000 -47.000 0.000
513.000 -47.000 0.000
516.000 -47.000 0.000
519.000 -47.000 0.000
522.000 -47.000 0.000
525.000 -47.000 0.000
528.000 -47.000 0.000
531.000 -47.000 0.000
534.000 -47.000 0.000
537.000 -47.000 0.000
540.000 -47.000 0.000
543.000 -47.000 0.000
546.000 -47.000 0.000
549.000 -47.000 0.000
552.000 -47.000 0.000
555.000 -47.000 0.000
558.000 -47.000 0.000
561.000 -47.000 0.000
564.000 -47.000 0.000
567.000 -47.000 0.000
570.000 -47.000 0.000
573.000 -47.000 0.000
576.000 -47.000 0.000
579.000 -47.000 0.000
582.000 -47.000 0.000
585.000 -47.000 0.000
588.000 -47.000 0.000
591.000 -47.000 0.000
594.000 -47.000 0.000
597.000 -47.000 0.000
600.000 -47.000 0.000
603.000 -47.000 0.000
606.000 -47.000 0.000
609.000 -47.000 0.000
612.000 -47.000 0.000
615.000 -47.000 0.000
618.000 -47.000 0.000
621.000 -47.000 0.000
624.000 -47.000 0.000
627.000 -47.000 0.000
630.000 -47.000 0.000
633.000 -47.000 0.000
636.000 -47.000 0.000
639.000 -47.000 0.000
642.000 -47.000 0.000
645.000 -47.000 0.000
648.000 -47.000 0.000
651.000 -47.000 0.000
654.000 -47.000 0.000
-602.000 -46.000 0.000
-590.000 -46.000 0.000
-587.000 -46.000 0.000
-538.000 -46.000 0.000
-535.000 -46.000 0.000
-532.000 -46.000 0.000
-517.000 -46.000 0.000
-514.000 -46.000 0.000
-500.000 -46.000 0.000
-609.000 -45.000 0.000
-594.000 -45.000 0.000
-578.000 -45.000 0.000
-575.000 -45.000 0.000
-572.000 -45.000 0.000
-569.000 -45.000 0.000
-566.000 -45.000 0.000
-563.000 -45.000 0.000
-560.000 -45.000 0.000
-557.000 -45.000 0.000
-554.000 -45.000 0.000
-529.000 -45.000 0.000
-526.000 -45.000 0.000
-511.000 -45.000 0.000
-497.000 -45.000 0.000
-318.000 -45.000 0.000
-606.000 -44.000 0.000
-599.000 -44.000 0.000
-584.000 -44.000 0.000
-581.000 -44.000 0.000
-551.000 -44.000 0.000
-548.000 -44.000 0.000
-545.000 -44.000 0.000
-542.000 -44.000 0.000
-523.000 -44.000 0.000
-520.000 -44.000 0.000
-508.000 -44.000 0.000
-505.000 -44.000 0.000
-494.000 -44.000 0.000
-382.000 -44.000 0.000
-379.000 -44.000 0.000
-376.000 -44.000 0.000
-373.000 -44.000 0.000
-370.000 -44.000 0.000
-367.000 -44.000 0.000
-364.000 -44.000 0.000
-361.000 -44.000 0.000
-358.000 -44.000 0.000
-355.000 -44.000 0.000
-352.000 -44.000 0.000
-349.000 -44.000 0.000
-346.000 -44.000 0.000
-343.000 -44.000 0.000
-340.000 -44.000 0.000
-337.000 -44.000 0.000
-334.000 -44.000 0.000
-331.000 -44.000 0.000
-328.000 -44.000 0.000
-325.000 -44.000 0.000
-322.000 -44.000 0.000
-215.000 -44.000 0.000
-212.000 -44.000 0.000
-209.000 -44.000 0.000
-206.000 -44.000 0.000
-203.000 -44.000 0.000
-200.000 -44.000 0.000
-197.000 -44.000 0.000
-194.000 -44.000 0.000
-191.000 -44.000 0.000
-188.000 -44.000 0.000
-185.000 -44.000 0.000
-182.000 -44.000 0.000
-179.000 -44.000 0.000
-176.000 -44.000 0.000
-173.000 -44.000 0.000
-170.000 -44.000 0.000
-167.000 -44.000 0.000
-164.000 -44.000 0.000
-161.000 -44.000 0.000
-158.000 -44.000 0.000
-155.000 -44.000 0.000
-152.000 -44.000 0.000
-149.000 -44.000 0.000
-146.000 -44.000 0.000
-143.000 -44.000 0.000
-140.000 -44.000 0.000
-137.000 -44.000 0.000
-134.000 -44.000 0.000
-131.000 -44.000 0.000
-128.000 -44.000 0.000
-125.000 -44.000 0.000
-122.000 -44.000 0.000
-119.000 -44.000 0.000
-116.000 -44.000 0.000
