ply
format ascii 1.0
element vertex 600
property float x
property float y
property float z
end_header
-245.000 -23.000 0.000
-241.000 -23.000 0.000
-237.000 -23.000 0.000
-233.000 -23.000 0.000
-229.000 -23.000 0.000
-250.000 -22.000 0.000
-225.000 -22.000 0.000
-221.000 -22.000 0.000
-217.000 -21.000 0.000
-161.000 -21.000 0.000
-157.000 -21.000 0.000
-153.000 -21.000 0.000
-149.000 -21.000 0.000
-145.000 -21.000 0.000
-141.000 -21.000 0.000
-137.000 -21.000 0.000
-91.000 -21.000 0.000
-87.000 -21.000 0.000
-83.000 -21.000 0.000
-79.000 -21.000 0.000
-75.000 -21.000 0.000
-71.000 -21.000 0.000
-67.000 -21.000 0.000
-63.000 -21.000 0.000
-59.000 -21.000 0.000
-55.000 -21.000 0.000
-51.000 -21.000 0.000
-47.000 -21.000 0.000
-43.000 -21.000 0.000
-39.000 -21.000 0.000
-35.000 -21.000 0.000
31.000 -21.000 0.000
35.000 -21.000 0.000
39.000 -21.000 0.000
43.000 -21.000 0.000
47.000 -21.000 0.000
51.000 -21.000 0.000
83.000 -21.000 0.000
87.000 -21.000 0.000
91.000 -21.000 0.000
95.000 -21.000 0.000
99.000 -21.000 0.000
103.000 -21.000 0.000
127.000 -21.000 0.000
131.000 -21.000 0.000
135.000 -21.000 0.000
139.000 -21.000 0.000
143.000 -21.000 0.000
147.000 -21.000 0.000
151.000 -21.000 0.000
155.000 -21.000 0.000
159.000 -21.000 0.000
163.000 -21.000 0.000
167.000 -21.000 0.000
171.000 -21.000 0.000
175.000 -21.000 0.000
179.000 -21.000 0.000
183.000 -21.000 0.000
197.000 -21.000 0.000
201.000 -21.000 0.000
205.000 -21.000 0.000
209.000 -21.000 0.000
213.000 -21.000 0.000
217.000 -21.000 0.000
221.000 -21.000 0.000
225.000 -21.000 0.000
229.000 -21.000 0.000
233.000 -21.000 0.000
237.000 -21.000 0.000
241.000 -21.000 0.000
245.000 -21.000 0.000
249.000 -21.000 0.000
253.000 -21.000 0.000
257.000 -21.000 0.000
261.000 -21.000 0.000
265.000 -21.000 0.000
269.000 -21.000 0.000
273.000 -21.000 0.000
-256.000 -20.000 0.000
-213.000 -20.000 0.000
-209.000 -19.000 0.000
-134.000 -19.000 0.000
-32.000 -19.000 0.000
186.000 -19.000 0.000
-259.000 -18.000 0.000
275.000 -18.000 0.000
-162.000 -17.000 0.000
-91.000 -17.000 0.000
31.000 -17.000 0.000
52.000 -17.000 0.000
83.000 -17.000 0.000
104.000 -17.000 0.000
127.000 -17.000 0.000
197.000 -17.000 0.000
-262.000 -16.000 0.000
-208.000 -15.000 0.000
-133.000 -15.000 0.000
-32.000 -15.000 0.000
186.000 -15.000 0.000
275.000 -14.000 0.000
-265.000 -13.000 0.000
-164.000 -13.000 0.000
-91.000 -13.000 0.000
31.000 -13.000 0.000
52.000 -13.000 0.000
83.000 -13.000 0.000
104.000 -13.000 0.000
127.000 -13.000 0.000
197.000 -13.000 0.000
-208.000 -11.000 0.000
-132.000 -11.000 0.000
-32.000 -11.000 0.000
186.000 -11.000 0.000
-267.000 -10.000 0.000
275.000 -10.000 0.000
-165.000 -9.000 0.000
-91.000 -9.000 0.000
31.000 -9.000 0.000
52.000 -9.000 0.000
83.000 -9.000 0.000
104.000 -9.000 0.000
127.000 -9.000 0.000
197.000 -9.000 0.000
-241.000 -8.000 0.000
-237.000 -8.000 0.000
-233.000 -8.000 0.000
-229.000 -8.000 0.000
-130.000 -8.000 0.000
-245.000 -7.000 0.000
-225.000 -7.000 0.000
-221.000 -7.000 0.000
-208.000 -7.000 0.000
-32.000 -7.000 0.000
186.000 -7.000 0.000
-268.000 -6.000 0.000
-217.000 -6.000 0.000
275.000 -6.000 0.000
-248.000 -5.000 0.000
-167.000 -5.000 0.000
-91.000 -5.000 0.000
-70.000 -5.000 0.000
-66.000 -5.000 0.000
-62.000 -5.000 0.000
-58.000 -5.000 0.000
-54.000 -5.000 0.000
-50.000 -5.000 0.000
-46.000 -5.000 0.000
-42.000 -5.000 0.000
-38.000 -5.000 0.000
31.000 -5.000 0.000
52.000 -5.000 0.000
83.000 -5.000 0.000
104.000 -5.000 0.000
127.000 -5.000 0.000
148.000 -5.000 0.000
152.000 -5.000 0.000
156.000 -5.000 0.000
160.000 -5.000 0.000
164.000 -5.000 0.000
168.000 -5.000 0.000
172.000 -5.000 0.000
176.000 -5.000 0.000
180.000 -5.000 0.000
197.000 -5.000 0.000
201.000 -5.000 0.000
205.000 -5.000 0.000
209.000 -5.000 0.000
213.000 -5.000 0.000
217.000 -5.000 0.000
221.000 -5.000 0.000
225.000 -5.000 0.000
246.000 -5.000 0.000
250.000 -5.000 0.000
254.000 -5.000 0.000
258.000 -5.000 0.000
262.000 -5.000 0.000
266.000 -5.000 0.000
270.000 -5.000 0.000
-214.000 -4.000 0.000
-129.000 -4.000 0.000
-210.000 -3.000 0.000
-269.000 -2.000 0.000
-250.000 -2.000 0.000
-168.000 -1.000 0.000
-149.000 -1.000 0.000
-91.000 -1.000 0.000
-70.000 -1.000 0.000
31.000 -1.000 0.000
52.000 -1.000 0.000
83.000 -1.000 0.000
104.000 -1.000 0.000
127.000 -1.000 0.000
148.000 -1.000 0.000
225.000 -1.000 0.000
246.000 -1.000 0.000
-128.000 0.000 0.000
-146.000 1.000 0.000
-269.000 2.000 0.000
-250.000 2.000 0.000
-170.000 3.000 0.000
-150.000 3.000 0.000
-126.000 3.000 0.000
-91.000 3.000 0.000
-70.000 3.000 0.000
31.000 3.000 0.000
52.000 3.000 0.000
83.000 3.000 0.000
104.000 3.000 0.000
127.000 3.000 0.000
148.000 3.000 0.000
225.000 3.000 0.000
246.000 3.000 0.000
-145.000 5.000 0.000
-269.000 6.000 0.000
-249.000 6.000 0.000
-171.000 7.000 0.000
-152.000 7.000 0.000
-125.000 7.000 0.000
-91.000 7.000 0.000
-70.000 7.000 0.000
31.000 7.000 0.000
52.000 7.000 0.000
83.000 7.000 0.000
104.000 7.000 0.000
127.000 7.000 0.000
148.000 7.000 0.000
225.000 7.000 0.000
246.000 7.000 0.000
-246.000 8.000 0.000
-144.000 9.000 0.000
-269.000 10.000 0.000
-243.000 10.000 0.000
-239.000 10.000 0.000
-123.000 10.000 0.000
-235.000 11.000 0.000
-173.000 11.000 0.000
-153.000 11.000 0.000
-91.000 11.000 0.000
-70.000 11.000 0.000
31.000 11.000 0.000
52.000 11.000 0.000
83.000 11.000 0.000
104.000 11.000 0.000
127.000 11.000 0.000
148.000 11.000 0.000
225.000 11.000 0.000
246.000 11.000 0.000
-231.000 12.000 0.000
-142.000 12.000 0.000
-66.000 12.000 0.000
-62.000 12.000 0.000
-58.000 12.000 0.000
-54.000 12.000 0.000
-50.000 12.000 0.000
-46.000 12.000 0.000
-42.000 12.000 0.000
-38.000 12.000 0.000
152.000 12.000 0.000
156.000 12.000 0.000
160.000 12.000 0.000
164.000 12.000 0.000
168.000 12.000 0.000
172.000 12.000 0.000
176.000 12.000 0.000
180.000 12.000 0.000
-267.000 13.000 0.000
-227.000 13.000 0.000
-223.000 14.000 0.000
-122.000 14.000 0.000
-35.000 14.000 0.000
183.000 14.000 0.000
-219.000 15.000 0.000
-174.000 15.000 0.000
-154.000 15.000 0.000
-91.000 15.000 0.000
31.000 15.000 0.000
52.000 15.000 0.000
83.000 15.000 0.000
104.000 15.000 0.000
127.000 15.000 0.000
225.000 15.000 0.000
246.000 15.000 0.000
-141.000 16.000 0.000
-266.000 17.000 0.000
-216.000 17.000 0.000
-121.000 18.000 0.000
-35.000 18.000 0.000
183.000 18.000 0.000
-263.000 19.000 0.000
-213.000 19.000 0.000
-176.000 19.000 0.000
-156.000 19.000 0.000
-91.000 19.000 0.000
31.000 19.000 0.000
52.000 19.000 0.000
83.000 19.000 0.000
104.000 19.000 0.000
127.000 19.000 0.000
225.000 19.000 0.000
246.000 19.000 0.000
-140.000 20.000 0.000
-210.000 21.000 0.000
-119.000 21.000 0.000
-261.000 22.000 0.000
-35.000 22.000 0.000
183.000 22.000 0.000
-207.000 23.000 0.000
-177.000 23.000 0.000
-157.000 23.000 0.000
-91.000 23.000 0.000
31.000 23.000 0.000
52.000 23.000 0.000
83.000 23.000 0.000
104.000 23.000 0.000
127.000 23.000 0.000
225.000 23.000 0.000
246.000 23.000 0.000
-258.000 24.000 0.000
-139.000 24.000 0.000
-254.000 25.000 0.000
-118.000 25.000 0.000
-205.000 26.000 0.000
-35.000 26.000 0.000
183.000 26.000 0.000
-251.000 27.000 0.000
-247.000 27.000 0.000
-179.000 27.000 0.000
-159.000 27.000 0.000
-137.000 27.000 0.000
-91.000 27.000 0.000
31.000 27.000 0.000
52.000 27.000 0.000
83.000 27.000 0.000
104.000 27.000 0.000
127.000 27.000 0.000
225.000 27.000 0.000
246.000 27.000 0.000
-243.000 28.000 0.000
-70.000 28.000 0.000
-66.000 28.000 0.000
-62.000 28.000 0.000
-58.000 28.000 0.000
-54.000 28.000 0.000
-50.000 28.000 0.000
-46.000 28.000 0.000
-42.000 28.000 0.000
-38.000 28.000 0.000
148.000 28.000 0.000
152.000 28.000 0.000
156.000 28.000 0.000
160.000 28.000 0.000
164.000 28.000 0.000
168.000 28.000 0.000
172.000 28.000 0.000
176.000 28.000 0.000
180.000 28.000 0.000
-239.000 29.000 0.000
-117.000 29.000 0.000
-235.000 30.000 0.000
-204.000 30.000 0.000
-231.000 31.000 0.000
-180.000 31.000 0.000
-160.000 31.000 0.000
-136.000 31.000 0.000
-91.000 31.000 0.000
31.000 31.000 0.000
52.000 31.000 0.000
83.000 31.000 0.000
104.000 31.000 0.000
127.000 31.000 0.000
225.000 31.000 0.000
246.000 31.000 0.000
-115.000 32.000 0.000
-70.000 32.000 0.000
148.000 32.000 0.000
-228.000 33.000 0.000
-157.000 33.000 0.000
-153.000 33.000 0.000
-149.000 33.000 0.000
-145.000 33.000 0.000
-141.000 33.000 0.000
-203.000 34.000 0.000
-225.000 35.000 0.000
-181.000 35.000 0.000
-91.000 35.000 0.000
31.000 35.000 0.000
52.000 35.000 0.000
83.000 35.000 0.000
104.000 35.000 0.000
127.000 35.000 0.000
225.000 35.000 0.000
246.000 35.000 0.000
-114.000 36.000 0.000
-70.000 36.000 0.000
148.000 36.000 0.000
-223.000 38.000 0.000
-203.000 38.000 0.000
-183.000 38.000 0.000
-91.000 39.000 0.000
31.000 39.000 0.000
53.000 39.000 0.000
82.000 39.000 0.000
103.000 39.000 0.000
127.000 39.000 0.000
225.000 39.000 0.000
246.000 39.000 0.000
-113.000 40.000 0.000
-70.000 40.000 0.000
148.000 40.000 0.000
-269.000 42.000 0.000
-223.000 42.000 0.000
-203.000 42.000 0.000
-184.000 42.000 0.000
-111.000 43.000 0.000
-91.000 43.000 0.000
32.000 43.000 0.000
54.000 43.000 0.000
80.000 43.000 0.000
102.000 43.000 0.000
127.000 43.000 0.000
225.000 43.000 0.000
246.000 43.000 0.000
-266.000 44.000 0.000
-70.000 44.000 0.000
148.000 44.000 0.000
-269.000 46.000 0.000
-263.000 46.000 0.000
-225.000 46.000 0.000
-204.000 46.000 0.000
-186.000 46.000 0.000
34.000 46.000 0.000
56.000 46.000 0.000
78.000 46.000 0.000
-259.000 47.000 0.000
-110.000 47.000 0.000
-91.000 47.000 0.000
101.000 47.000 0.000
127.000 47.000 0.000
225.000 47.000 0.000
246.000 47.000 0.000
-255.000 48.000 0.000
-166.000 48.000 0.000
-162.000 48.000 0.000
-158.000 48.000 0.000
-154.000 48.000 0.000
-150.000 48.000 0.000
-146.000 48.000 0.000
-142.000 48.000 0.000
-138.000 48.000 0.000
-134.000 48.000 0.000
-130.000 48.000 0.000
-70.000 48.000 0.000
-66.000 48.000 0.000
-62.000 48.000 0.000
-58.000 48.000 0.000
-54.000 48.000 0.000
-50.000 48.000 0.000
-46.000 48.000 0.000
-42.000 48.000 0.000
-38.000 48.000 0.000
-34.000 48.000 0.000
59.000 48.000 0.000
75.000 48.000 0.000
148.000 48.000 0.000
152.000 48.000 0.000
156.000 48.000 0.000
160.000 48.000 0.000
164.000 48.000 0.000
168.000 48.000 0.000
172.000 48.000 0.000
176.000 48.000 0.000
180.000 48.000 0.000
184.000 48.000 0.000
-251.000 49.000 0.000
-229.000 49.000 0.000
-269.000 50.000 0.000
-247.000 50.000 0.000
-205.000 50.000 0.000
-187.000 50.000 0.000
-31.000 50.000 0.000
35.000 50.000 0.000
62.000 50.000 0.000
66.000 50.000 0.000
70.000 50.000 0.000
99.000 50.000 0.000
187.000 50.000 0.000
-243.000 51.000 0.000
-239.000 51.000 0.000
-235.000 51.000 0.000
-109.000 51.000 0.000
-91.000 51.000 0.000
127.000 51.000 0.000
225.000 51.000 0.000
246.000 51.000 0.000
-167.000 52.000 0.000
-129.000 52.000 0.000
37.000 53.000 0.000
-269.000 54.000 0.000
-207.000 54.000 0.000
-189.000 54.000 0.000
-107.000 54.000 0.000
-31.000 54.000 0.000
97.000 54.000 0.000
187.000 54.000 0.000
-127.000 55.000 0.000
-91.000 55.000 0.000
127.000 55.000 0.000
225.000 55.000 0.000
246.000 55.000 0.000
-169.000 56.000 0.000
39.000 56.000 0.000
-210.000 57.000 0.000
94.000 57.000 0.000
-269.000 58.000 0.000
-190.000 58.000 0.000
-106.000 58.000 0.000
-31.000 58.000 0.000
42.000 58.000 0.000
187.000 58.000 0.000
-126.000 59.000 0.000
-91.000 59.000 0.000
127.000 59.000 0.000
225.000 59.000 0.000
246.000 59.000 0.000
-213.000 60.000 0.000
-170.000 60.000 0.000
45.000 60.000 0.000
90.000 60.000 0.000
-267.000 61.000 0.000
-263.000 62.000 0.000
-217.000 62.000 0.000
-191.000 62.000 0.000
-105.000 62.000 0.000
-31.000 62.000 0.000
48.000 62.000 0.000
86.000 62.000 0.000
187.000 62.000 0.000
-259.000 63.000 0.000
-125.000 63.000 0.000
-91.000 63.000 0.000
127.000 63.000 0.000
225.000 63.000 0.000
246.000 63.000 0.000
-255.000 64.000 0.000
-223.000 64.000 0.000
-188.000 64.000 0.000
-184.000 64.000 0.000
-180.000 64.000 0.000
-176.000 64.000 0.000
-172.000 64.000 0.000
-121.000 64.000 0.000
-117.000 64.000 0.000
-113.000 64.000 0.000
-109.000 64.000 0.000
-87.000 64.000 0.000
-83.000 64.000 0.000
-79.000 64.000 0.000
-75.000 64.000 0.000
-71.000 64.000 0.000
-67.000 64.000 0.000
-63.000 64.000 0.000
-59.000 64.000 0.000
-55.000 64.000 0.000
-51.000 64.000 0.000
-47.000 64.000 0.000
-43.000 64.000 0.000
-39.000 64.000 0.000
-35.000 64.000 0.000
51.000 64.000 0.000
80.000 64.000 0.000
131.000 64.000 0.000
135.000 64.000 0.000
139.000 64.000 0.000
143.000 64.000 0.000
147.000 64.000 0.000
151.000 64.000 0.000
155.000 64.000 0.000
159.000 64.000 0.000
163.000 64.000 0.000
167.000 64.000 0.000
171.000 64.000 0.000
175.000 64.000 0.000
179.000 64.000 0.000
183.000 64.000 0.000
229.000 64.000 0.000
233.000 64.000 0.000
237.000 64.000 0.000
241.000 64.000 0.000
-251.000 65.000 0.000
-247.000 65.000 0.000
-228.000 65.000 0.000
55.000 65.000 0.000
59.000 65.000 0.000
75.000 65.000 0.000
-243.000 66.000 0.000
-239.000 66.000 0.000
-235.000 66.000 0.000
63.000 66.000 0.000
67.000 66.000 0.000
71.000 66.000 0.000
